<svg xmlns="http://www.w3.org/2000/svg" version="1.1" xmlns:xlink="http://www.w3.org/1999/xlink" xmlns:svgjs="http://svgjs.dev/svgjs" width="1900" height="1000" preserveAspectRatio="none" viewBox="0 0 1900 1000"><g mask="url(&quot;#SvgjsMask1029&quot;)" fill="none"><rect width="1900" height="1000" x="0" y="0" fill="#0e2a47"></rect><path d="M36.91 210.38L101.86 247.88L101.86 322.88L36.91 360.38L-28.04 322.88L-28.04 247.88zM36.91 435.38L101.86 472.88L101.86 547.88L36.91 585.38L-28.04 547.88L-28.04 472.88zM36.91 885.38L101.86 922.88L101.86 997.88L36.91 1035.38L-28.04 997.88L-28.04 922.88zM101.86 997.88L166.82 1035.38L166.82 1110.38L101.86 1147.88L36.91 1110.38L36.91 1035.38zM166.82 -14.62L231.77 22.88L231.77 97.88L166.82 135.38L101.86 97.88L101.86 22.88zM166.82 435.38L231.77 472.88L231.77 547.88L166.82 585.38L101.86 547.88L101.86 472.88zM231.77 772.88L296.73 810.38L296.73 885.38L231.77 922.88L166.82 885.38L166.82 810.38zM231.77 997.88L296.73 1035.38L296.73 1110.38L231.77 1147.88L166.82 1110.38L166.82 1035.38zM296.73 -14.62L361.68 22.88L361.68 97.88L296.73 135.38L231.77 97.88L231.77 22.88zM361.68 97.88L426.63 135.38L426.63 210.38L361.68 247.88L296.73 210.38L296.73 135.38zM296.73 210.38L361.68 247.88L361.68 322.88L296.73 360.38L231.77 322.88L231.77 247.88zM296.73 885.38L361.68 922.88L361.68 997.88L296.73 1035.38L231.77 997.88L231.77 922.88zM426.63 -14.62L491.59 22.88L491.59 97.88L426.63 135.38L361.68 97.88L361.68 22.88zM426.63 210.38L491.59 247.88L491.59 322.88L426.63 360.38L361.68 322.88L361.68 247.88zM491.59 997.88L556.54 1035.38L556.54 1110.38L491.59 1147.88L426.63 1110.38L426.63 1035.38zM621.49 322.88L686.45 360.38L686.45 435.38L621.49 472.88L556.54 435.38L556.54 360.38zM621.49 547.88L686.45 585.38L686.45 660.38L621.49 697.88L556.54 660.38L556.54 585.38zM751.4 772.88L816.36 810.38L816.36 885.38L751.4 922.88L686.45 885.38L686.45 810.38zM881.31 97.88L946.26 135.38L946.26 210.38L881.31 247.88L816.35 210.38L816.35 135.38zM816.35 660.38L881.31 697.88L881.31 772.88L816.35 810.38L751.4 772.88L751.4 697.88zM946.26 435.38L1011.22 472.88L1011.22 547.88L946.26 585.38L881.31 547.88L881.31 472.88zM1076.17 -14.62L1141.12 22.88L1141.12 97.88L1076.17 135.38L1011.22 97.88L1011.22 22.88zM1141.12 97.88L1206.08 135.38L1206.08 210.38L1141.12 247.88L1076.17 210.38L1076.17 135.38zM1076.17 435.38L1141.12 472.88L1141.12 547.88L1076.17 585.38L1011.22 547.88L1011.22 472.88zM1271.03 997.88L1335.98 1035.38L1335.98 1110.38L1271.03 1147.88L1206.08 1110.38L1206.08 1035.38zM1530.85 97.88L1595.8 135.38L1595.8 210.38L1530.85 247.88L1465.89 210.38L1465.89 135.38zM1465.89 210.38L1530.85 247.88L1530.85 322.88L1465.89 360.38L1400.94 322.88L1400.94 247.88zM1465.89 660.38L1530.85 697.88L1530.85 772.88L1465.89 810.38L1400.94 772.88L1400.94 697.88zM1530.85 772.88L1595.8 810.38L1595.8 885.38L1530.85 922.88L1465.89 885.38L1465.89 810.38zM1595.8 435.38L1660.75 472.88L1660.75 547.88L1595.8 585.38L1530.85 547.88L1530.85 472.88zM1725.71 435.38L1790.66 472.88L1790.66 547.88L1725.71 585.38L1660.75 547.88L1660.75 472.88zM1725.71 660.38L1790.66 697.88L1790.66 772.88L1725.71 810.38L1660.75 772.88L1660.75 697.88zM1790.66 772.88L1855.61 810.38L1855.61 885.38L1790.66 922.88L1725.71 885.38L1725.71 810.38zM1920.57 322.88L1985.52 360.38L1985.52 435.38L1920.57 472.88L1855.62 435.38L1855.62 360.38zM1855.62 435.38L1920.57 472.88L1920.57 547.88L1855.62 585.38L1790.66 547.88L1790.66 472.88zM1920.57 547.88L1985.52 585.38L1985.52 660.38L1920.57 697.88L1855.62 660.38L1855.62 585.38zM1855.62 885.38L1920.57 922.88L1920.57 997.88L1855.62 1035.38L1790.66 997.88L1790.66 922.88z" stroke="#03305d" stroke-width="2"></path><path d="M29.41 210.38 a7.5 7.5 0 1 0 15 0 a7.5 7.5 0 1 0 -15 0zM94.36 247.88 a7.5 7.5 0 1 0 15 0 a7.5 7.5 0 1 0 -15 0zM94.36 322.88 a7.5 7.5 0 1 0 15 0 a7.5 7.5 0 1 0 -15 0zM29.41 360.38 a7.5 7.5 0 1 0 15 0 a7.5 7.5 0 1 0 -15 0zM-35.54 322.88 a7.5 7.5 0 1 0 15 0 a7.5 7.5 0 1 0 -15 0zM-35.54 247.88 a7.5 7.5 0 1 0 15 0 a7.5 7.5 0 1 0 -15 0zM29.41 435.38 a7.5 7.5 0 1 0 15 0 a7.5 7.5 0 1 0 -15 0zM94.36 472.88 a7.5 7.5 0 1 0 15 0 a7.5 7.5 0 1 0 -15 0zM94.36 547.88 a7.5 7.5 0 1 0 15 0 a7.5 7.5 0 1 0 -15 0zM29.41 585.38 a7.5 7.5 0 1 0 15 0 a7.5 7.5 0 1 0 -15 0zM-35.54 547.88 a7.5 7.5 0 1 0 15 0 a7.5 7.5 0 1 0 -15 0zM-35.54 472.88 a7.5 7.5 0 1 0 15 0 a7.5 7.5 0 1 0 -15 0zM29.41 885.38 a7.5 7.5 0 1 0 15 0 a7.5 7.5 0 1 0 -15 0zM94.36 922.88 a7.5 7.5 0 1 0 15 0 a7.5 7.5 0 1 0 -15 0zM94.36 997.88 a7.5 7.5 0 1 0 15 0 a7.5 7.5 0 1 0 -15 0zM29.41 1035.38 a7.5 7.5 0 1 0 15 0 a7.5 7.5 0 1 0 -15 0zM-35.54 997.88 a7.5 7.5 0 1 0 15 0 a7.5 7.5 0 1 0 -15 0zM-35.54 922.88 a7.5 7.5 0 1 0 15 0 a7.5 7.5 0 1 0 -15 0zM159.32 1035.38 a7.5 7.5 0 1 0 15 0 a7.5 7.5 0 1 0 -15 0zM159.32 1110.38 a7.5 7.5 0 1 0 15 0 a7.5 7.5 0 1 0 -15 0zM94.36 1147.88 a7.5 7.5 0 1 0 15 0 a7.5 7.5 0 1 0 -15 0zM29.41 1110.38 a7.5 7.5 0 1 0 15 0 a7.5 7.5 0 1 0 -15 0zM159.32 -14.62 a7.5 7.5 0 1 0 15 0 a7.5 7.5 0 1 0 -15 0zM224.27 22.88 a7.5 7.5 0 1 0 15 0 a7.5 7.5 0 1 0 -15 0zM224.27 97.88 a7.5 7.5 0 1 0 15 0 a7.5 7.5 0 1 0 -15 0zM159.32 135.38 a7.5 7.5 0 1 0 15 0 a7.5 7.5 0 1 0 -15 0zM94.36 97.88 a7.5 7.5 0 1 0 15 0 a7.5 7.5 0 1 0 -15 0zM94.36 22.88 a7.5 7.5 0 1 0 15 0 a7.5 7.5 0 1 0 -15 0zM159.32 435.38 a7.5 7.5 0 1 0 15 0 a7.5 7.5 0 1 0 -15 0zM224.27 472.88 a7.5 7.5 0 1 0 15 0 a7.5 7.5 0 1 0 -15 0zM224.27 547.88 a7.5 7.5 0 1 0 15 0 a7.5 7.5 0 1 0 -15 0zM159.32 585.38 a7.5 7.5 0 1 0 15 0 a7.5 7.5 0 1 0 -15 0zM224.27 772.88 a7.5 7.5 0 1 0 15 0 a7.5 7.5 0 1 0 -15 0zM289.23 810.38 a7.5 7.5 0 1 0 15 0 a7.5 7.5 0 1 0 -15 0zM289.23 885.38 a7.5 7.5 0 1 0 15 0 a7.5 7.5 0 1 0 -15 0zM224.27 922.88 a7.5 7.5 0 1 0 15 0 a7.5 7.5 0 1 0 -15 0zM159.32 885.38 a7.5 7.5 0 1 0 15 0 a7.5 7.5 0 1 0 -15 0zM159.32 810.38 a7.5 7.5 0 1 0 15 0 a7.5 7.5 0 1 0 -15 0zM224.27 997.88 a7.5 7.5 0 1 0 15 0 a7.5 7.5 0 1 0 -15 0zM289.23 1035.38 a7.5 7.5 0 1 0 15 0 a7.5 7.5 0 1 0 -15 0zM289.23 1110.38 a7.5 7.5 0 1 0 15 0 a7.5 7.5 0 1 0 -15 0zM224.27 1147.88 a7.5 7.5 0 1 0 15 0 a7.5 7.5 0 1 0 -15 0zM289.23 -14.62 a7.5 7.5 0 1 0 15 0 a7.5 7.5 0 1 0 -15 0zM354.18 22.88 a7.5 7.5 0 1 0 15 0 a7.5 7.5 0 1 0 -15 0zM354.18 97.88 a7.5 7.5 0 1 0 15 0 a7.5 7.5 0 1 0 -15 0zM289.23 135.38 a7.5 7.5 0 1 0 15 0 a7.5 7.5 0 1 0 -15 0zM419.13 135.38 a7.5 7.5 0 1 0 15 0 a7.5 7.5 0 1 0 -15 0zM419.13 210.38 a7.5 7.5 0 1 0 15 0 a7.5 7.5 0 1 0 -15 0zM354.18 247.88 a7.5 7.5 0 1 0 15 0 a7.5 7.5 0 1 0 -15 0zM289.23 210.38 a7.5 7.5 0 1 0 15 0 a7.5 7.5 0 1 0 -15 0zM354.18 322.88 a7.5 7.5 0 1 0 15 0 a7.5 7.5 0 1 0 -15 0zM289.23 360.38 a7.5 7.5 0 1 0 15 0 a7.5 7.5 0 1 0 -15 0zM224.27 322.88 a7.5 7.5 0 1 0 15 0 a7.5 7.5 0 1 0 -15 0zM224.27 247.88 a7.5 7.5 0 1 0 15 0 a7.5 7.5 0 1 0 -15 0zM354.18 922.88 a7.5 7.5 0 1 0 15 0 a7.5 7.5 0 1 0 -15 0zM354.18 997.88 a7.5 7.5 0 1 0 15 0 a7.5 7.5 0 1 0 -15 0zM419.13 -14.62 a7.5 7.5 0 1 0 15 0 a7.5 7.5 0 1 0 -15 0zM484.09 22.88 a7.5 7.5 0 1 0 15 0 a7.5 7.5 0 1 0 -15 0zM484.09 97.88 a7.5 7.5 0 1 0 15 0 a7.5 7.5 0 1 0 -15 0zM484.09 247.88 a7.5 7.5 0 1 0 15 0 a7.5 7.5 0 1 0 -15 0zM484.09 322.88 a7.5 7.5 0 1 0 15 0 a7.5 7.5 0 1 0 -15 0zM419.13 360.38 a7.5 7.5 0 1 0 15 0 a7.5 7.5 0 1 0 -15 0zM484.09 997.88 a7.5 7.5 0 1 0 15 0 a7.5 7.5 0 1 0 -15 0zM549.04 1035.38 a7.5 7.5 0 1 0 15 0 a7.5 7.5 0 1 0 -15 0zM549.04 1110.38 a7.5 7.5 0 1 0 15 0 a7.5 7.5 0 1 0 -15 0zM484.09 1147.88 a7.5 7.5 0 1 0 15 0 a7.5 7.5 0 1 0 -15 0zM419.13 1110.38 a7.5 7.5 0 1 0 15 0 a7.5 7.5 0 1 0 -15 0zM419.13 1035.38 a7.5 7.5 0 1 0 15 0 a7.5 7.5 0 1 0 -15 0zM613.99 322.88 a7.5 7.5 0 1 0 15 0 a7.5 7.5 0 1 0 -15 0zM678.95 360.38 a7.5 7.5 0 1 0 15 0 a7.5 7.5 0 1 0 -15 0zM678.95 435.38 a7.5 7.5 0 1 0 15 0 a7.5 7.5 0 1 0 -15 0zM613.99 472.88 a7.5 7.5 0 1 0 15 0 a7.5 7.5 0 1 0 -15 0zM549.04 435.38 a7.5 7.5 0 1 0 15 0 a7.5 7.5 0 1 0 -15 0zM549.04 360.38 a7.5 7.5 0 1 0 15 0 a7.5 7.5 0 1 0 -15 0zM613.99 547.88 a7.5 7.5 0 1 0 15 0 a7.5 7.5 0 1 0 -15 0zM678.95 585.38 a7.5 7.5 0 1 0 15 0 a7.5 7.5 0 1 0 -15 0zM678.95 660.38 a7.5 7.5 0 1 0 15 0 a7.5 7.5 0 1 0 -15 0zM613.99 697.88 a7.5 7.5 0 1 0 15 0 a7.5 7.5 0 1 0 -15 0zM549.04 660.38 a7.5 7.5 0 1 0 15 0 a7.5 7.5 0 1 0 -15 0zM549.04 585.38 a7.5 7.5 0 1 0 15 0 a7.5 7.5 0 1 0 -15 0zM743.9 772.88 a7.5 7.5 0 1 0 15 0 a7.5 7.5 0 1 0 -15 0zM808.86 810.38 a7.5 7.5 0 1 0 15 0 a7.5 7.5 0 1 0 -15 0zM808.86 885.38 a7.5 7.5 0 1 0 15 0 a7.5 7.5 0 1 0 -15 0zM743.9 922.88 a7.5 7.5 0 1 0 15 0 a7.5 7.5 0 1 0 -15 0zM678.95 885.38 a7.5 7.5 0 1 0 15 0 a7.5 7.5 0 1 0 -15 0zM678.95 810.38 a7.5 7.5 0 1 0 15 0 a7.5 7.5 0 1 0 -15 0zM873.81 97.88 a7.5 7.5 0 1 0 15 0 a7.5 7.5 0 1 0 -15 0zM938.76 135.38 a7.5 7.5 0 1 0 15 0 a7.5 7.5 0 1 0 -15 0zM938.76 210.38 a7.5 7.5 0 1 0 15 0 a7.5 7.5 0 1 0 -15 0zM873.81 247.88 a7.5 7.5 0 1 0 15 0 a7.5 7.5 0 1 0 -15 0zM808.85 210.38 a7.5 7.5 0 1 0 15 0 a7.5 7.5 0 1 0 -15 0zM808.85 135.38 a7.5 7.5 0 1 0 15 0 a7.5 7.5 0 1 0 -15 0zM808.85 660.38 a7.5 7.5 0 1 0 15 0 a7.5 7.5 0 1 0 -15 0zM873.81 697.88 a7.5 7.5 0 1 0 15 0 a7.5 7.5 0 1 0 -15 0zM873.81 772.88 a7.5 7.5 0 1 0 15 0 a7.5 7.5 0 1 0 -15 0zM808.85 810.38 a7.5 7.5 0 1 0 15 0 a7.5 7.5 0 1 0 -15 0zM743.9 697.88 a7.5 7.5 0 1 0 15 0 a7.5 7.5 0 1 0 -15 0zM938.76 435.38 a7.5 7.5 0 1 0 15 0 a7.5 7.5 0 1 0 -15 0zM1003.72 472.88 a7.5 7.5 0 1 0 15 0 a7.5 7.5 0 1 0 -15 0zM1003.72 547.88 a7.5 7.5 0 1 0 15 0 a7.5 7.5 0 1 0 -15 0zM938.76 585.38 a7.5 7.5 0 1 0 15 0 a7.5 7.5 0 1 0 -15 0zM873.81 547.88 a7.5 7.5 0 1 0 15 0 a7.5 7.5 0 1 0 -15 0zM873.81 472.88 a7.5 7.5 0 1 0 15 0 a7.5 7.5 0 1 0 -15 0zM1068.67 -14.62 a7.5 7.5 0 1 0 15 0 a7.5 7.5 0 1 0 -15 0zM1133.62 22.88 a7.5 7.5 0 1 0 15 0 a7.5 7.5 0 1 0 -15 0zM1133.62 97.88 a7.5 7.5 0 1 0 15 0 a7.5 7.5 0 1 0 -15 0zM1068.67 135.38 a7.5 7.5 0 1 0 15 0 a7.5 7.5 0 1 0 -15 0zM1003.72 97.88 a7.5 7.5 0 1 0 15 0 a7.5 7.5 0 1 0 -15 0zM1003.72 22.88 a7.5 7.5 0 1 0 15 0 a7.5 7.5 0 1 0 -15 0zM1198.58 135.38 a7.5 7.5 0 1 0 15 0 a7.5 7.5 0 1 0 -15 0zM1198.58 210.38 a7.5 7.5 0 1 0 15 0 a7.5 7.5 0 1 0 -15 0zM1133.62 247.88 a7.5 7.5 0 1 0 15 0 a7.5 7.5 0 1 0 -15 0zM1068.67 210.38 a7.5 7.5 0 1 0 15 0 a7.5 7.5 0 1 0 -15 0zM1068.67 435.38 a7.5 7.5 0 1 0 15 0 a7.5 7.5 0 1 0 -15 0zM1133.62 472.88 a7.5 7.5 0 1 0 15 0 a7.5 7.5 0 1 0 -15 0zM1133.62 547.88 a7.5 7.5 0 1 0 15 0 a7.5 7.5 0 1 0 -15 0zM1068.67 585.38 a7.5 7.5 0 1 0 15 0 a7.5 7.5 0 1 0 -15 0zM1263.53 997.88 a7.5 7.5 0 1 0 15 0 a7.5 7.5 0 1 0 -15 0zM1328.48 1035.38 a7.5 7.5 0 1 0 15 0 a7.5 7.5 0 1 0 -15 0zM1328.48 1110.38 a7.5 7.5 0 1 0 15 0 a7.5 7.5 0 1 0 -15 0zM1263.53 1147.88 a7.5 7.5 0 1 0 15 0 a7.5 7.5 0 1 0 -15 0zM1198.58 1110.38 a7.5 7.5 0 1 0 15 0 a7.5 7.5 0 1 0 -15 0zM1198.58 1035.38 a7.5 7.5 0 1 0 15 0 a7.5 7.5 0 1 0 -15 0zM1523.35 97.88 a7.5 7.5 0 1 0 15 0 a7.5 7.5 0 1 0 -15 0zM1588.3 135.38 a7.5 7.5 0 1 0 15 0 a7.5 7.5 0 1 0 -15 0zM1588.3 210.38 a7.5 7.5 0 1 0 15 0 a7.5 7.5 0 1 0 -15 0zM1523.35 247.88 a7.5 7.5 0 1 0 15 0 a7.5 7.5 0 1 0 -15 0zM1458.39 210.38 a7.5 7.5 0 1 0 15 0 a7.5 7.5 0 1 0 -15 0zM1458.39 135.38 a7.5 7.5 0 1 0 15 0 a7.5 7.5 0 1 0 -15 0zM1523.35 322.88 a7.5 7.5 0 1 0 15 0 a7.5 7.5 0 1 0 -15 0zM1458.39 360.38 a7.5 7.5 0 1 0 15 0 a7.5 7.5 0 1 0 -15 0zM1393.44 322.88 a7.5 7.5 0 1 0 15 0 a7.5 7.5 0 1 0 -15 0zM1393.44 247.88 a7.5 7.5 0 1 0 15 0 a7.5 7.5 0 1 0 -15 0zM1458.39 660.38 a7.5 7.5 0 1 0 15 0 a7.5 7.5 0 1 0 -15 0zM1523.35 697.88 a7.5 7.5 0 1 0 15 0 a7.5 7.5 0 1 0 -15 0zM1523.35 772.88 a7.5 7.5 0 1 0 15 0 a7.5 7.5 0 1 0 -15 0zM1458.39 810.38 a7.5 7.5 0 1 0 15 0 a7.5 7.5 0 1 0 -15 0zM1393.44 772.88 a7.5 7.5 0 1 0 15 0 a7.5 7.5 0 1 0 -15 0zM1393.44 697.88 a7.5 7.5 0 1 0 15 0 a7.5 7.5 0 1 0 -15 0zM1588.3 810.38 a7.5 7.5 0 1 0 15 0 a7.5 7.5 0 1 0 -15 0zM1588.3 885.38 a7.5 7.5 0 1 0 15 0 a7.5 7.5 0 1 0 -15 0zM1523.35 922.88 a7.5 7.5 0 1 0 15 0 a7.5 7.5 0 1 0 -15 0zM1458.39 885.38 a7.5 7.5 0 1 0 15 0 a7.5 7.5 0 1 0 -15 0zM1588.3 435.38 a7.5 7.5 0 1 0 15 0 a7.5 7.5 0 1 0 -15 0zM1653.25 472.88 a7.5 7.5 0 1 0 15 0 a7.5 7.5 0 1 0 -15 0zM1653.25 547.88 a7.5 7.5 0 1 0 15 0 a7.5 7.5 0 1 0 -15 0zM1588.3 585.38 a7.5 7.5 0 1 0 15 0 a7.5 7.5 0 1 0 -15 0zM1523.35 547.88 a7.5 7.5 0 1 0 15 0 a7.5 7.5 0 1 0 -15 0zM1523.35 472.88 a7.5 7.5 0 1 0 15 0 a7.5 7.5 0 1 0 -15 0zM1718.21 435.38 a7.5 7.5 0 1 0 15 0 a7.5 7.5 0 1 0 -15 0zM1783.16 472.88 a7.5 7.5 0 1 0 15 0 a7.5 7.5 0 1 0 -15 0zM1783.16 547.88 a7.5 7.5 0 1 0 15 0 a7.5 7.5 0 1 0 -15 0zM1718.21 585.38 a7.5 7.5 0 1 0 15 0 a7.5 7.5 0 1 0 -15 0zM1718.21 660.38 a7.5 7.5 0 1 0 15 0 a7.5 7.5 0 1 0 -15 0zM1783.16 697.88 a7.5 7.5 0 1 0 15 0 a7.5 7.5 0 1 0 -15 0zM1783.16 772.88 a7.5 7.5 0 1 0 15 0 a7.5 7.5 0 1 0 -15 0zM1718.21 810.38 a7.5 7.5 0 1 0 15 0 a7.5 7.5 0 1 0 -15 0zM1653.25 772.88 a7.5 7.5 0 1 0 15 0 a7.5 7.5 0 1 0 -15 0zM1653.25 697.88 a7.5 7.5 0 1 0 15 0 a7.5 7.5 0 1 0 -15 0zM1848.11 810.38 a7.5 7.5 0 1 0 15 0 a7.5 7.5 0 1 0 -15 0zM1848.11 885.38 a7.5 7.5 0 1 0 15 0 a7.5 7.5 0 1 0 -15 0zM1783.16 922.88 a7.5 7.5 0 1 0 15 0 a7.5 7.5 0 1 0 -15 0zM1718.21 885.38 a7.5 7.5 0 1 0 15 0 a7.5 7.5 0 1 0 -15 0zM1913.07 322.88 a7.5 7.5 0 1 0 15 0 a7.5 7.5 0 1 0 -15 0zM1978.02 360.38 a7.5 7.5 0 1 0 15 0 a7.5 7.5 0 1 0 -15 0zM1978.02 435.38 a7.5 7.5 0 1 0 15 0 a7.5 7.5 0 1 0 -15 0zM1913.07 472.88 a7.5 7.5 0 1 0 15 0 a7.5 7.5 0 1 0 -15 0zM1848.12 435.38 a7.5 7.5 0 1 0 15 0 a7.5 7.5 0 1 0 -15 0zM1848.12 360.38 a7.5 7.5 0 1 0 15 0 a7.5 7.5 0 1 0 -15 0zM1913.07 547.88 a7.5 7.5 0 1 0 15 0 a7.5 7.5 0 1 0 -15 0zM1848.12 585.38 a7.5 7.5 0 1 0 15 0 a7.5 7.5 0 1 0 -15 0zM1978.02 585.38 a7.5 7.5 0 1 0 15 0 a7.5 7.5 0 1 0 -15 0zM1978.02 660.38 a7.5 7.5 0 1 0 15 0 a7.5 7.5 0 1 0 -15 0zM1913.07 697.88 a7.5 7.5 0 1 0 15 0 a7.5 7.5 0 1 0 -15 0zM1848.12 660.38 a7.5 7.5 0 1 0 15 0 a7.5 7.5 0 1 0 -15 0zM1848.12 885.38 a7.5 7.5 0 1 0 15 0 a7.5 7.5 0 1 0 -15 0zM1913.07 922.88 a7.5 7.5 0 1 0 15 0 a7.5 7.5 0 1 0 -15 0zM1913.07 997.88 a7.5 7.5 0 1 0 15 0 a7.5 7.5 0 1 0 -15 0zM1848.12 1035.38 a7.5 7.5 0 1 0 15 0 a7.5 7.5 0 1 0 -15 0zM1783.16 997.88 a7.5 7.5 0 1 0 15 0 a7.5 7.5 0 1 0 -15 0z" fill="#03305d"></path><path d="M36.27 298.2L79.57 323.2L79.57 373.2L36.27 398.2L-7.03 373.2L-7.03 323.2zM79.57 373.2L122.88 398.2L122.88 448.2L79.57 473.2L36.27 448.2L36.27 398.2zM79.57 523.2L122.88 548.2L122.88 598.2L79.57 623.2L36.27 598.2L36.27 548.2zM79.57 673.2L122.88 698.2L122.88 748.2L79.57 773.2L36.27 748.2L36.27 698.2zM122.88 -1.8L166.18 23.2L166.18 73.2L122.88 98.2L79.57 73.2L79.57 23.2zM166.18 73.2L209.48 98.2L209.48 148.2L166.18 173.2L122.88 148.2L122.88 98.2zM122.88 148.2L166.18 173.2L166.18 223.2L122.88 248.2L79.57 223.2L79.57 173.2zM166.18 523.2L209.48 548.2L209.48 598.2L166.18 623.2L122.88 598.2L122.88 548.2zM166.18 673.2L209.48 698.2L209.48 748.2L166.18 773.2L122.88 748.2L122.88 698.2zM122.88 748.2L166.18 773.2L166.18 823.2L122.88 848.2L79.57 823.2L79.57 773.2zM252.78 223.2L296.08 248.2L296.08 298.2L252.78 323.2L209.48 298.2L209.48 248.2zM209.48 298.2L252.78 323.2L252.78 373.2L209.48 398.2L166.18 373.2L166.18 323.2zM252.78 823.2L296.08 848.2L296.08 898.2L252.78 923.2L209.48 898.2L209.48 848.2zM252.78 973.2L296.08 998.2L296.08 1048.2L252.78 1073.2L209.48 1048.2L209.48 998.2zM296.08 -1.8L339.39 23.2L339.39 73.2L296.08 98.2L252.78 73.2L252.78 23.2zM296.08 148.2L339.39 173.2L339.39 223.2L296.08 248.2L252.78 223.2L252.78 173.2zM296.08 298.2L339.39 323.2L339.39 373.2L296.08 398.2L252.78 373.2L252.78 323.2zM296.08 448.2L339.39 473.2L339.39 523.2L296.08 548.2L252.78 523.2L252.78 473.2zM339.39 523.2L382.69 548.2L382.69 598.2L339.39 623.2L296.08 598.2L296.08 548.2zM296.08 598.2L339.39 623.2L339.39 673.2L296.08 698.2L252.78 673.2L252.78 623.2zM296.08 748.2L339.39 773.2L339.39 823.2L296.08 848.2L252.78 823.2L252.78 773.2zM382.69 298.2L425.99 323.2L425.99 373.2L382.69 398.2L339.39 373.2L339.39 323.2zM425.99 523.2L469.3 548.2L469.3 598.2L425.99 623.2L382.69 598.2L382.69 548.2zM425.99 823.2L469.3 848.2L469.3 898.2L425.99 923.2L382.69 898.2L382.69 848.2zM469.3 -1.8L512.6 23.2L512.6 73.2L469.3 98.2L425.99 73.2L425.99 23.2zM469.3 598.2L512.6 623.2L512.6 673.2L469.3 698.2L425.99 673.2L425.99 623.2zM512.6 823.2L555.9 848.2L555.9 898.2L512.6 923.2L469.3 898.2L469.3 848.2zM512.6 973.2L555.9 998.2L555.9 1048.2L512.6 1073.2L469.3 1048.2L469.3 998.2zM555.9 -1.8L599.2 23.2L599.2 73.2L555.9 98.2L512.6 73.2L512.6 23.2zM555.9 148.2L599.2 173.2L599.2 223.2L555.9 248.2L512.6 223.2L512.6 173.2zM555.9 298.2L599.2 323.2L599.2 373.2L555.9 398.2L512.6 373.2L512.6 323.2zM599.2 673.2L642.5 698.2L642.5 748.2L599.2 773.2L555.9 748.2L555.9 698.2zM599.2 973.2L642.5 998.2L642.5 1048.2L599.2 1073.2L555.9 1048.2L555.9 998.2zM642.5 -1.8L685.81 23.2L685.81 73.2L642.5 98.2L599.2 73.2L599.2 23.2zM642.5 148.2L685.81 173.2L685.81 223.2L642.5 248.2L599.2 223.2L599.2 173.2zM685.81 523.2L729.11 548.2L729.11 598.2L685.81 623.2L642.5 598.2L642.5 548.2zM642.5 748.2L685.81 773.2L685.81 823.2L642.5 848.2L599.2 823.2L599.2 773.2zM685.81 973.2L729.11 998.2L729.11 1048.2L685.81 1073.2L642.5 1048.2L642.5 998.2zM772.41 223.2L815.72 248.2L815.72 298.2L772.41 323.2L729.11 298.2L729.11 248.2zM729.11 748.2L772.41 773.2L772.41 823.2L729.11 848.2L685.81 823.2L685.81 773.2zM772.41 973.2L815.72 998.2L815.72 1048.2L772.41 1073.2L729.11 1048.2L729.11 998.2zM815.72 -1.8L859.02 23.2L859.02 73.2L815.72 98.2L772.41 73.2L772.41 23.2zM859.02 73.2L902.32 98.2L902.32 148.2L859.02 173.2L815.72 148.2L815.72 98.2zM859.02 373.2L902.32 398.2L902.32 448.2L859.02 473.2L815.72 448.2L815.72 398.2zM815.72 598.2L859.02 623.2L859.02 673.2L815.72 698.2L772.41 673.2L772.41 623.2zM859.02 673.2L902.32 698.2L902.32 748.2L859.02 773.2L815.72 748.2L815.72 698.2zM815.72 748.2L859.02 773.2L859.02 823.2L815.72 848.2L772.41 823.2L772.41 773.2zM815.72 898.2L859.02 923.2L859.02 973.2L815.72 998.2L772.41 973.2L772.41 923.2zM902.32 -1.8L945.62 23.2L945.62 73.2L902.32 98.2L859.02 73.2L859.02 23.2zM945.62 73.2L988.93 98.2L988.93 148.2L945.62 173.2L902.32 148.2L902.32 98.2zM902.32 448.2L945.62 473.2L945.62 523.2L902.32 548.2L859.02 523.2L859.02 473.2zM945.62 523.2L988.93 548.2L988.93 598.2L945.62 623.2L902.32 598.2L902.32 548.2zM902.32 598.2L945.62 623.2L945.62 673.2L902.32 698.2L859.02 673.2L859.02 623.2zM945.62 973.2L988.93 998.2L988.93 1048.2L945.62 1073.2L902.32 1048.2L902.32 998.2zM988.93 -1.8L1032.23 23.2L1032.23 73.2L988.93 98.2L945.62 73.2L945.62 23.2zM1032.23 523.2L1075.53 548.2L1075.53 598.2L1032.23 623.2L988.93 598.2L988.93 548.2zM1032.23 673.2L1075.53 698.2L1075.53 748.2L1032.23 773.2L988.93 748.2L988.93 698.2zM1032.23 973.2L1075.53 998.2L1075.53 1048.2L1032.23 1073.2L988.93 1048.2L988.93 998.2zM1118.83 73.2L1162.13 98.2L1162.13 148.2L1118.83 173.2L1075.53 148.2L1075.53 98.2zM1075.53 148.2L1118.83 173.2L1118.83 223.2L1075.53 248.2L1032.23 223.2L1032.23 173.2zM1075.53 298.2L1118.83 323.2L1118.83 373.2L1075.53 398.2L1032.23 373.2L1032.23 323.2zM1118.83 373.2L1162.13 398.2L1162.13 448.2L1118.83 473.2L1075.53 448.2L1075.53 398.2zM1075.53 748.2L1118.83 773.2L1118.83 823.2L1075.53 848.2L1032.23 823.2L1032.23 773.2zM1118.83 823.2L1162.13 848.2L1162.13 898.2L1118.83 923.2L1075.53 898.2L1075.53 848.2zM1075.53 898.2L1118.83 923.2L1118.83 973.2L1075.53 998.2L1032.23 973.2L1032.23 923.2zM1205.44 73.2L1248.74 98.2L1248.74 148.2L1205.44 173.2L1162.13 148.2L1162.13 98.2zM1205.44 223.2L1248.74 248.2L1248.74 298.2L1205.44 323.2L1162.13 298.2L1162.13 248.2zM1162.13 298.2L1205.44 323.2L1205.44 373.2L1162.13 398.2L1118.83 373.2L1118.83 323.2zM1205.44 523.2L1248.74 548.2L1248.74 598.2L1205.44 623.2L1162.13 598.2L1162.13 548.2zM1205.44 673.2L1248.74 698.2L1248.74 748.2L1205.44 773.2L1162.13 748.2L1162.13 698.2zM1205.44 823.2L1248.74 848.2L1248.74 898.2L1205.44 923.2L1162.13 898.2L1162.13 848.2zM1205.44 973.2L1248.74 998.2L1248.74 1048.2L1205.44 1073.2L1162.13 1048.2L1162.13 998.2zM1248.74 148.2L1292.04 173.2L1292.04 223.2L1248.74 248.2L1205.44 223.2L1205.44 173.2zM1292.04 223.2L1335.35 248.2L1335.35 298.2L1292.04 323.2L1248.74 298.2L1248.74 248.2zM1248.74 298.2L1292.04 323.2L1292.04 373.2L1248.74 398.2L1205.44 373.2L1205.44 323.2zM1292.04 973.2L1335.35 998.2L1335.35 1048.2L1292.04 1073.2L1248.74 1048.2L1248.74 998.2zM1378.65 73.2L1421.95 98.2L1421.95 148.2L1378.65 173.2L1335.35 148.2L1335.35 98.2zM1335.35 598.2L1378.65 623.2L1378.65 673.2L1335.35 698.2L1292.04 673.2L1292.04 623.2zM1465.25 223.2L1508.56 248.2L1508.56 298.2L1465.25 323.2L1421.95 298.2L1421.95 248.2zM1421.95 748.2L1465.25 773.2L1465.25 823.2L1421.95 848.2L1378.65 823.2L1378.65 773.2zM1465.25 973.2L1508.56 998.2L1508.56 1048.2L1465.25 1073.2L1421.95 1048.2L1421.95 998.2zM1508.56 -1.8L1551.86 23.2L1551.86 73.2L1508.56 98.2L1465.25 73.2L1465.25 23.2zM1551.86 223.2L1595.16 248.2L1595.16 298.2L1551.86 323.2L1508.56 298.2L1508.56 248.2zM1508.56 448.2L1551.86 473.2L1551.86 523.2L1508.56 548.2L1465.25 523.2L1465.25 473.2zM1551.86 523.2L1595.16 548.2L1595.16 598.2L1551.86 623.2L1508.56 598.2L1508.56 548.2zM1508.56 748.2L1551.86 773.2L1551.86 823.2L1508.56 848.2L1465.25 823.2L1465.25 773.2zM1508.56 898.2L1551.86 923.2L1551.86 973.2L1508.56 998.2L1465.25 973.2L1465.25 923.2zM1551.86 973.2L1595.16 998.2L1595.16 1048.2L1551.86 1073.2L1508.56 1048.2L1508.56 998.2zM1595.16 -1.8L1638.46 23.2L1638.46 73.2L1595.16 98.2L1551.86 73.2L1551.86 23.2zM1638.46 73.2L1681.77 98.2L1681.77 148.2L1638.46 173.2L1595.16 148.2L1595.16 98.2zM1595.16 448.2L1638.46 473.2L1638.46 523.2L1595.16 548.2L1551.86 523.2L1551.86 473.2zM1725.07 73.2L1768.37 98.2L1768.37 148.2L1725.07 173.2L1681.77 148.2L1681.77 98.2zM1725.07 223.2L1768.37 248.2L1768.37 298.2L1725.07 323.2L1681.77 298.2L1681.77 248.2zM1681.77 298.2L1725.07 323.2L1725.07 373.2L1681.77 398.2L1638.46 373.2L1638.46 323.2zM1681.77 448.2L1725.07 473.2L1725.07 523.2L1681.77 548.2L1638.46 523.2L1638.46 473.2zM1681.77 598.2L1725.07 623.2L1725.07 673.2L1681.77 698.2L1638.46 673.2L1638.46 623.2zM1725.07 673.2L1768.37 698.2L1768.37 748.2L1725.07 773.2L1681.77 748.2L1681.77 698.2zM1725.07 823.2L1768.37 848.2L1768.37 898.2L1725.07 923.2L1681.77 898.2L1681.77 848.2zM1811.67 73.2L1854.98 98.2L1854.98 148.2L1811.67 173.2L1768.37 148.2L1768.37 98.2zM1811.67 373.2L1854.98 398.2L1854.98 448.2L1811.67 473.2L1768.37 448.2L1768.37 398.2zM1811.67 523.2L1854.98 548.2L1854.98 598.2L1811.67 623.2L1768.37 598.2L1768.37 548.2zM1768.37 598.2L1811.67 623.2L1811.67 673.2L1768.37 698.2L1725.07 673.2L1725.07 623.2zM1854.98 298.2L1898.28 323.2L1898.28 373.2L1854.98 398.2L1811.67 373.2L1811.67 323.2zM1898.28 823.2L1941.58 848.2L1941.58 898.2L1898.28 923.2L1854.98 898.2L1854.98 848.2zM1898.28 973.2L1941.58 998.2L1941.58 1048.2L1898.28 1073.2L1854.98 1048.2L1854.98 998.2z" stroke="rgba(6, 80, 156, 0.93)" stroke-width="2"></path></g><defs><mask id="SvgjsMask1029"><rect width="1900" height="1000" fill="#ffffff"></rect></mask></defs></svg>